{"title":"Kiss - Killers [EAC-FLAC-LOG]","uid":6449401,"size":301024916,"categoryP":"audio","categoryS":"flac","magnet":"?xt=urn:btih:4432c13ae42afef2a00e4ff1e79e6898db83af1d&amp;dn=Kiss+-+Killers+%5BEAC-FLAC-LOG%5D&amp;tr=udp%3A%2F%2Ftracker.openbittorrent.com%3A80&amp;tr=udp%3A%2F%2Fopen.demonii.com%3A1337&amp;tr=udp%3A%2F%2Ftracker.coppersurfer.tk%3A6969&amp;tr=udp%3A%2F%2Fexodus.desync.com%3A6969","seeders":2,"leechers":0,"uploader":null,"files":13,"time":1307368092,"description":"Exact Audio Copy V0.99 prebeta 5 from 4. May 2009\n\nEAC extraction logfile from 6. June 2011, 11:21\n\nKiss / Killers\n\nUsed drive  : HL-DT-STBDDVDRW GBC-H20L   Adapter: 0  ID: 1\n\nRead mode : Burst\n\nRead offset correction                      : 667\nOverread into Lead-In and Lead-Out          : No\nFill up missing offset samples with silence : Yes\nDelete leading and trailing silent blocks   : No\nNull samples used in CRC calculations       : No\nUsed interface                              : Native Win32 interface for Win NT &amp; 2000\nGap handling                                : Not detected, thus appended to previous track\n\nUsed output format              : User Defined Encoder\nSelected bitrate                : 768 kBit/s\nQuality                         : High\nAdd ID3 tag                     : No\nCommand line compressor         : C:\\Program Files (x86)\\Exact Audio Copy\\FLAC\\FLAC.EXE\nAdditional command line options : -6 -V -T &quot;ARTIST=%a&quot; -T &quot;TITLE=%t&quot; -T &quot;ALBUM=%g&quot; -T &quot;DATE=%y&quot; -T &quot;TRACKNUMBER=%n&quot; -T &quot;GENRE=%m&quot; -T &quot;COMMENT=%e&quot; %s -o %d\n\n\nTOC of the extracted CD\n\n     Track |   Start  |  Length  | Start sector | End sector \n    ---------------------------------------------------------\n        1  |  0:00.33 |  3:55.00 |        33    |    17657   \n        2  |  3:55.33 |  3:27.00 |     17658    |    33182   \n        3  |  7:22.33 |  4:19.25 |     33183    |    52632   \n        4  | 11:41.58 |  3:17.25 |     52633    |    67432   \n        5  | 14:59.08 |  2:37.25 |     67433    |    79232   \n        6  | 17:36.33 |  3:59.00 |     79233    |    97157   \n        7  | 21:35.33 |  4:31.00 |     97158    |   117482   \n        8  | 26:06.33 |  3:45.00 |    117483    |   134357   \n        9  | 29:51.33 |  3:57.00 |    134358    |   152132   \n       10  | 33:48.33 |  4:12.00 |    152133    |   171032   \n       11  | 38:00.33 |  4:19.00 |    171033    |   190457   \n       12  | 42:19.33 |  3:58.00 |    190458    |   208307   \n\n\nTrack  1\n\n     Filename C:\\Musikk\\Torrents\\Shared\\Kiss - Killers (1982)\\01 Kiss - I'm A Legend Tonight.wav\n\n     Peak level 86.4 %\n     Test CRC 828DE474\n     Copy CRC 828DE474\n     Accurately ripped (confidence 7)  [192C9EE6]\n     Copy OK\n\nTrack  2\n\n     Filename C:\\Musikk\\Torrents\\Shared\\Kiss - Killers (1982)\\02 Kiss - Down On Your Knees.wav\n\n     Peak level 76.2 %\n     Test CRC 5E1DC91E\n     Copy CRC 5E1DC91E\n     Accurately ripped (confidence 8)  [E46C8393]\n     Copy OK\n\nTrack  3\n\n     Filename C:\\Musikk\\Torrents\\Shared\\Kiss - Killers (1982)\\03 Kiss - Cold Gin.wav\n\n     Peak level 57.6 %\n     Test CRC D3F596CB\n     Copy CRC D3F596CB\n     Accurately ripped (confidence 7)  [7E9B932F]\n     Copy OK\n\nTrack  4\n\n     Filename C:\\Musikk\\Torrents\\Shared\\Kiss - Killers (1982)\\04 Kiss - Love Gun.wav\n\n     Peak level 84.5 %\n     Test CRC A95E943B\n     Copy CRC A95E943B\n     Accurately ripped (confidence 7)  [7DCA0D83]\n     Copy OK\n\nTrack  5\n\n     Filename C:\\Musikk\\Torrents\\Shared\\Kiss - Killers (1982)\\05 Kiss - Shout It Out Loud.wav\n\n     Peak level 74.8 %\n     Test CRC 44898520\n     Copy CRC 44898520\n     Accurately ripped (confidence 7)  [181B6C31]\n     Copy OK\n\nTrack  6\n\n     Filename C:\\Musikk\\Torrents\\Shared\\Kiss - Killers (1982)\\06 Kiss - Sure Know Something.wav\n\n     Peak level 65.6 %\n     Test CRC DC5629D2\n     Copy CRC DC5629D2\n     Accurately ripped (confidence 7)  [ABAB3027]\n     Copy OK\n\nTrack  7\n\n     Filename C:\\Musikk\\Torrents\\Shared\\Kiss - Killers (1982)\\07 Kiss - Nowhere To Run.wav\n\n     Peak level 83.7 %\n     Test CRC D83A7344\n     Copy CRC D83A7344\n     Accurately ripped (confidence 7)  [1BC178C9]\n     Copy OK\n\nTrack  8\n\n     Filename C:\\Musikk\\Torrents\\Shared\\Kiss - Killers (1982)\\08 Kiss - Partners In Crime.wav\n\n     Peak level 92.0 %\n     Test CRC 022AAA9B\n     Copy CRC 022AAA9B\n     Accurately ripped (confidence 8)  [74248C13]\n     Copy OK\n\nTrack  9\n\n     Filename C:\\Musikk\\Torrents\\Shared\\Kiss - Killers (1982)\\09 Kiss - Detroit Rock City.wav\n\n     Peak level 78.1 %\n     Test CRC 6FA530AA\n     Copy CRC 6FA530AA\n     Accurately ripped (confidence 7)  [6383CA85]\n     Copy OK\n\nTrack 10\n\n     Filename C:\\Musikk\\Torrents\\Shared\\Kiss - Killers (1982)\\10 Kiss - God Of Thunder.wav\n\n     Peak level 81.1 %\n     Test CRC 254FD6DE\n     Copy CRC 254FD6DE\n     Accurately ripped (confidence 7)  [1082502E]\n     Copy OK\n\nTrack 11\n\n     Filename C:\\Musikk\\Torrents\\Shared\\Kiss - Killers (1982)\\11 Kiss - I Was Made For Loving You.wav\n\n     Peak level 92.5 %\n     Test CRC 688B7A7E\n     Copy CRC 688B7A7E\n     Accurately ripped (confidence 7)  [48E33DE4]\n     Copy OK\n\nTrack 12\n\n     Filename C:\\Musikk\\Torrents\\Shared\\Kiss - Killers (1982)\\12 Kiss - Rock and Roll All Nite (live).wav\n\n     Peak level 66.5 %\n     Test CRC 0795AF7C\n     Copy CRC 0795AF7C\n     Accurately ripped (confidence 7)  [C59B23D7]\n     Copy OK\n\n\nAll tracks accurately ripped\n\nNo errors occurred\n\nEnd of status report","torrent":{"xt":"urn:btih:4432c13ae42afef2a00e4ff1e79e6898db83af1d","amp;dn":"Kiss+-+Killers+%5BEAC-FLAC-LOG%5D","amp;tr":["udp%3A%2F%2Ftracker.openbittorrent.com%3A80","udp%3A%2F%2Fopen.demonii.com%3A1337","udp%3A%2F%2Ftracker.coppersurfer.tk%3A6969","udp%3A%2F%2Fexodus.desync.com%3A6969"],"infoHash":"4432c13ae42afef2a00e4ff1e79e6898db83af1d","infoHashBuffer":{"type":"Buffer","data":[68,50,193,58,228,42,254,242,160,14,79,241,231,158,104,152,219,131,175,29]},"announce":[],"urlList":[]}}